<svg width="101" height="41" viewBox="0 0 101 41" fill="none" xmlns="http://www.w3.org/2000/svg">
<path d="M12.5611 12.7C15.5771 12.7 17.9561 13.311 19.6981 14.533C21.4401 15.755 22.3111 17.419 22.3111 19.525C22.3111 20.981 21.8821 22.255 21.0241 23.347C20.1921 24.413 19.0481 25.141 17.5921 25.531C19.3601 25.869 20.7511 26.662 21.7651 27.91C22.7791 29.132 23.2861 30.64 23.2861 32.434C23.2861 34.774 22.3631 36.62 20.5171 37.972C18.6711 39.324 16.1621 40 12.9901 40H0.00305176V12.7H12.5611ZM12.2491 23.698C13.4191 23.698 14.3291 23.438 14.9791 22.918C15.6551 22.372 15.9931 21.618 15.9931 20.656C15.9931 19.72 15.6551 18.992 14.9791 18.472C14.3291 17.952 13.4191 17.705 12.2491 17.731H6.16505V23.698H12.2491ZM12.2491 34.969C13.7051 34.969 14.8491 34.683 15.6811 34.111C16.5131 33.513 16.9291 32.694 16.9291 31.654C16.9291 30.666 16.5131 29.886 15.6811 29.314C14.8491 28.742 13.7051 28.469 12.2491 28.495H6.16505V34.969H12.2491Z" fill="#FF7A00"/>
<path d="M39.8187 40V37.543C39.1167 38.427 38.2067 39.103 37.0887 39.571C35.9707 40.039 34.6837 40.273 33.2277 40.273C31.0177 40.273 29.2627 39.675 27.9627 38.479C26.6627 37.257 26.0127 35.671 26.0127 33.721C26.0127 31.745 26.7017 30.211 28.0797 29.119C29.4837 28.001 31.4597 27.429 34.0077 27.403H39.7797V27.013C39.7797 25.895 39.4027 25.037 38.6487 24.439C37.9207 23.815 36.8417 23.503 35.4117 23.503C33.4617 23.503 31.3817 24.114 29.1717 25.336L27.2997 21.202C28.9637 20.37 30.5237 19.759 31.9797 19.369C33.4357 18.979 35.0347 18.784 36.7767 18.784C39.5847 18.784 41.7557 19.447 43.2897 20.773C44.8497 22.099 45.6427 23.945 45.6687 26.311L45.7077 40H39.8187ZM34.9047 35.983C36.1527 35.983 37.2317 35.684 38.1417 35.086C39.0517 34.488 39.5977 33.734 39.7797 32.824V30.952H35.0607C33.8907 30.952 33.0197 31.147 32.4477 31.537C31.9017 31.901 31.6287 32.499 31.6287 33.331C31.6287 34.137 31.9147 34.787 32.4867 35.281C33.0847 35.749 33.8907 35.983 34.9047 35.983Z" fill="#FF7A00"/>
<path d="M47.4993 19.057L53.7003 19.018L58.6533 34.306L63.5673 19.018H69.5343L61.6173 40H55.4553L47.4993 19.057Z" fill="#FF7A00"/>
<path d="M80.4966 18.823C83.8766 18.823 86.4376 19.798 88.1796 21.748C89.9476 23.698 90.8316 26.415 90.8316 29.899C90.8316 30.523 90.8186 31.004 90.7926 31.342H75.7386C76.0766 32.668 76.7266 33.708 77.6886 34.462C78.6506 35.19 79.8076 35.554 81.1596 35.554C82.1476 35.554 83.0966 35.372 84.0066 35.008C84.9166 34.618 85.7356 34.059 86.4636 33.331L89.6226 36.529C88.5566 37.725 87.2566 38.648 85.7226 39.298C84.2146 39.922 82.5246 40.234 80.6526 40.234C78.4426 40.234 76.5056 39.792 74.8416 38.908C73.2036 38.024 71.9296 36.776 71.0196 35.164C70.1356 33.552 69.6936 31.693 69.6936 29.587C69.6936 27.455 70.1486 25.583 71.0586 23.971C71.9686 22.333 73.2426 21.072 74.8806 20.188C76.5186 19.278 78.3906 18.823 80.4966 18.823ZM85.1766 27.793C85.1246 26.415 84.6826 25.31 83.8506 24.478C83.0186 23.646 81.9136 23.23 80.5356 23.23C79.2356 23.23 78.1436 23.646 77.2596 24.478C76.4016 25.284 75.8556 26.389 75.6216 27.793H85.1766Z" fill="#FF7A00"/>
<path d="M94.9531 11.062H100.959V40H94.9531V11.062Z" fill="#FF7A00"/>
<path d="M1.16159 2.5368C1.16159 3.18615 1.62253 3.57576 2.23098 3.57576C2.84865 3.57576 3.31881 3.18615 3.31881 2.5368C3.31881 1.87879 2.84865 1.48052 2.23098 1.48052C1.62253 1.48052 1.16159 1.87879 1.16159 2.5368ZM5.77105 3.02164H4.41587C4.19461 3.94805 3.31881 4.57143 2.23098 4.57143C0.977207 4.57143 0 3.70563 0 2.5368C0 1.35065 0.977207 0.493506 2.23098 0.493506C3.32803 0.493506 4.22227 1.14286 4.43431 2.1039H5.77105V0.0173158H6.98795V5.8355H5.77105V3.02164ZM2.60896 6.93506H7.18155V7.84416H1.39206V5.27273H2.60896V6.93506Z" fill="#FF7A00"/>
<path d="M10.6932 5.22078C11.3201 5.22078 11.735 4.58874 11.735 3.4026C11.735 2.22511 11.3201 1.59307 10.6932 1.59307C10.0756 1.59307 9.66072 2.22511 9.66072 3.4026C9.66072 4.58874 10.0756 5.22078 10.6932 5.22078ZM14.2794 0H15.4963V8H14.2794V3.80087H12.8689C12.7398 5.32468 11.8733 6.25974 10.6932 6.25974C9.43024 6.25974 8.49913 5.16017 8.49913 3.4026C8.49913 1.65368 9.43024 0.562771 10.6932 0.562771C11.8364 0.562771 12.6937 1.43723 12.8597 2.87446H14.2794V0Z" fill="#FF7A00"/>
<path d="M21.2943 6.17316H24.5394V7.10822H16.8508V6.17316H20.0774V4.98701H17.7358V2.28571H22.4743V1.42857H17.7266V0.519481H23.6728V3.17749H18.9435V4.06926H23.8664V4.98701H21.2943V6.17316Z" fill="#FF7A00"/>
<path d="M30.7741 1.71429V2.15584C30.7741 3.45455 31.4563 4.83117 32.876 5.38528L32.2122 6.28571C31.2258 5.88745 30.5528 5.10822 30.1749 4.14719C29.7969 5.18615 29.1147 6.06061 28.119 6.48485L27.4276 5.57576C28.8473 4.97835 29.5387 3.51515 29.5387 2.15584V1.71429H27.7687V0.770563H32.5257V1.71429H30.7741ZM33.3093 0.00865789H34.5262V7.98268H33.3093V0.00865789Z" fill="#FF7A00"/>
<path d="M41.1723 3.48052L40.5823 4.38095C39.6328 4.09524 38.9782 3.53247 38.6002 2.81385C38.213 3.58442 37.5308 4.20779 36.5352 4.51082L35.936 3.61039C37.3557 3.18615 37.9641 2.14719 37.9641 1.1342V0.372294H39.1995V1.1342C39.1995 2.12987 39.7987 3.08225 41.1723 3.48052ZM37.2358 6.01732V5.10822H43.0253V7.99134H41.7992V6.01732H37.2358ZM41.7992 0.00865789H43.0253V4.7619H41.7992V0.00865789Z" fill="#FF7A00"/>
<path d="M47.1823 0.536796C48.5099 0.536796 49.5239 1.35931 49.5239 2.50216C49.5239 3.65368 48.5099 4.46753 47.1823 4.46753C45.8548 4.46753 44.8499 3.65368 44.8499 2.50216C44.8499 1.35931 45.8548 0.536796 47.1823 0.536796ZM47.1823 1.51515C46.5278 1.51515 46.03 1.87879 46.03 2.50216C46.03 3.12554 46.5278 3.48918 47.1823 3.48918C47.8369 3.48918 48.3347 3.12554 48.3347 2.50216C48.3347 1.87879 47.8369 1.51515 47.1823 1.51515ZM50.3168 0H51.5337V8H50.3168V0ZM44.6471 6.38095L44.4904 5.45455C45.9839 5.45455 48.0674 5.44589 49.8558 5.1948L49.9296 6.01732C48.1042 6.36364 46.1129 6.38095 44.6471 6.38095Z" fill="#FF7A00"/>
<path d="M59.8427 3.15151L59.9717 4.03463C58.8378 4.22511 57.8053 4.25974 56.1182 4.25974H55.4084V0.406926H59.3909V1.31602H56.616V1.88745H59.2158V2.77056H56.616V3.35931C57.9804 3.35065 58.8562 3.31602 59.8427 3.15151ZM60.571 6.97835V6.31169H57.4365V6.97835H60.571ZM60.571 5.43723V4.75325H61.7786V7.88745H56.2381V4.75325H57.4365V5.43723H60.571ZM62.9033 1.72294V2.65801H61.7786V4.42424H60.5617V0.00865789H61.7786V1.72294H62.9033Z" fill="#FF7A00"/>
<path d="M67.4107 0.961039C66.1846 0.961039 65.6038 1.12554 65.6038 1.48052C65.6038 1.85281 66.1846 2.00866 67.4107 2.00866C68.646 2.00866 69.2268 1.85281 69.2268 1.48052C69.2268 1.12554 68.646 0.961039 67.4107 0.961039ZM67.4107 2.83983C65.4747 2.83983 64.3408 2.36364 64.3408 1.48052C64.3408 0.606061 65.4747 0.121212 67.4107 0.121212C69.3559 0.121212 70.4898 0.606061 70.4898 1.48052C70.4898 2.36364 69.3559 2.83983 67.4107 2.83983ZM65.6683 6.61472V7.06493H70.5359V7.92208H64.4606V5.82684H69.1162V5.4026H64.4514V4.56277H70.3147V6.61472H65.6683ZM63.5756 3.22078H71.2458V4.11255H63.5756V3.22078Z" fill="#FF7A00"/>
<path d="M79.9051 2.99567L79.2782 3.79221C78.6974 3.49784 78.3286 3.02164 78.1166 2.45022C77.9138 3.03896 77.5635 3.55844 76.9827 3.88745C76.4019 3.54978 76.0516 3.02164 75.8487 2.42424C75.6275 3.00433 75.2587 3.48918 74.6779 3.79221L74.0511 2.99567C75.0098 2.48485 75.2772 1.48918 75.2772 0.571428V0.294372H76.4203V0.571428C76.4203 1.21212 76.5402 1.97403 76.9827 2.56277C77.4344 1.98268 77.545 1.22944 77.545 0.571428V0.294372H78.679V0.571428C78.679 1.52381 78.9555 2.49351 79.9051 2.99567ZM78.3379 7.1948C79.2874 7.1948 79.7115 7.08225 79.7115 6.83117C79.7115 6.58009 79.2874 6.46753 78.3379 6.46753C77.3883 6.46753 76.9642 6.58009 76.9642 6.83117C76.9642 7.08225 77.3883 7.1948 78.3379 7.1948ZM78.3379 5.67965C79.9696 5.67965 80.9099 6.07792 80.9099 6.83117C80.9099 7.58441 79.9696 7.98268 78.3379 7.98268C76.7153 7.98268 75.7658 7.58441 75.7658 6.83117C75.7658 6.07792 76.7153 5.67965 78.3379 5.67965ZM78.9463 3.92208V4.56277H81.3893V5.41125H75.2956V4.56277H77.7294V3.92208H78.9463ZM81.1589 1.58442H82.0254V2.51948H81.1589V4.18182H79.942V0.0173158H81.1589V1.58442Z" fill="#FF7A00"/>
<path d="M89.5381 2.1645V3.07359H83.6472V0.294372H84.8641V2.1645H89.5381ZM84.7904 5.43723V6.90043H89.5842V7.80952H83.5643V5.43723H84.7904ZM82.6977 3.88745H90.3863V4.80519H82.6977V3.88745Z" fill="#FF7A00"/>
<path d="M99.8845 3.16883L98.6861 3.05628C98.852 2.34632 98.8704 1.78355 98.8797 1.27273H94.2149V0.363636H100.097V0.995671C100.097 1.60173 100.097 2.30303 99.8845 3.16883ZM97.7457 4.97835V5.21212C97.7457 6.02597 98.5939 6.8658 100.493 7.07359L100.05 7.95671C98.6584 7.77489 97.6628 7.26407 97.1465 6.54545C96.621 7.26407 95.6254 7.77489 94.2333 7.95671L93.7908 7.07359C95.6807 6.8658 96.5288 6.02597 96.5288 5.21212V4.97835H97.7457ZM97.4046 3.60173H101V4.51082H93.3483V3.60173H96.1877V2.12987H97.4046V3.60173Z" fill="#FF7A00"/>
</svg>
